<mxfile host="app.diagrams.net" agent="Mozilla/5.0 (Macintosh; Intel Mac OS X 10_15_7) AppleWebKit/537.36 (KHTML, like Gecko) Chrome/131.0.0.0 Safari/537.36" version="26.0.2">
  <diagram name="Page-1" id="Page-1">
    <mxGraphModel dx="993" dy="1415" grid="1" gridSize="10" guides="1" tooltips="1" connect="1" arrows="1" fold="1" page="1" pageScale="1" pageWidth="1100" pageHeight="850" math="0" shadow="0">
      <root>
        <mxCell id="0" />
        <mxCell id="1" parent="0" />
        <UserObject label="" tags="Connector" id="2">
          <mxCell parent="1" vertex="1" visible="0">
            <mxGeometry as="geometry" />
          </mxCell>
        </UserObject>
        <UserObject label="" tags="Connector" id="vq0pCrYZXvMMgsdQWHzt-2">
          <mxCell parent="1" vertex="1" visible="0">
            <mxGeometry x="490" y="100" as="geometry" />
          </mxCell>
        </UserObject>
        <mxCell id="ZoBCMOwXG-SO-0q1adX1-35" style="edgeStyle=orthogonalEdgeStyle;rounded=0;orthogonalLoop=1;jettySize=auto;html=1;entryX=0;entryY=0.5;entryDx=0;entryDy=0;endArrow=none;endFill=0;exitX=1;exitY=0.75;exitDx=0;exitDy=0;" parent="1" source="vq0pCrYZXvMMgsdQWHzt-3" target="vq0pCrYZXvMMgsdQWHzt-17" edge="1">
          <mxGeometry relative="1" as="geometry">
            <mxPoint x="300" y="400" as="sourcePoint" />
            <Array as="points">
              <mxPoint x="290" y="390" />
              <mxPoint x="570" y="390" />
              <mxPoint x="570" y="282" />
            </Array>
          </mxGeometry>
        </mxCell>
        <mxCell id="ZoBCMOwXG-SO-0q1adX1-36" value="&lt;font style=&quot;font-size: 12px;&quot; face=&quot;Garamond&quot;&gt;invoke operation&lt;/font&gt;" style="edgeLabel;html=1;align=center;verticalAlign=middle;resizable=0;points=[];" parent="ZoBCMOwXG-SO-0q1adX1-35" vertex="1" connectable="0">
          <mxGeometry x="-0.6883" y="-1" relative="1" as="geometry">
            <mxPoint x="-6" as="offset" />
          </mxGeometry>
        </mxCell>
        <mxCell id="ZoBCMOwXG-SO-0q1adX1-37" value="&lt;font style=&quot;font-size: 12px;&quot; face=&quot;Garamond&quot;&gt;send data&lt;/font&gt;" style="edgeLabel;html=1;align=center;verticalAlign=middle;resizable=0;points=[];" parent="ZoBCMOwXG-SO-0q1adX1-35" vertex="1" connectable="0">
          <mxGeometry x="0.8157" y="-2" relative="1" as="geometry">
            <mxPoint y="1" as="offset" />
          </mxGeometry>
        </mxCell>
        <mxCell id="vq0pCrYZXvMMgsdQWHzt-3" value="User Interface" style="swimlane;fontStyle=1;align=center;verticalAlign=middle;childLayout=stackLayout;horizontal=1;startSize=29;horizontalStack=0;resizeParent=1;resizeParentMax=0;resizeLast=0;collapsible=0;marginBottom=0;html=1;whiteSpace=wrap;fontFamily=Garamond;fontSize=14;" parent="1" vertex="1">
          <mxGeometry x="140" y="350" width="140" height="54" as="geometry" />
        </mxCell>
        <mxCell id="vq0pCrYZXvMMgsdQWHzt-6" value="DSAC Component" style="swimlane;fontStyle=1;align=center;verticalAlign=middle;childLayout=stackLayout;horizontal=1;startSize=29;horizontalStack=0;resizeParent=1;resizeParentMax=0;resizeLast=0;collapsible=0;marginBottom=0;html=1;whiteSpace=wrap;fontFamily=Garamond;fontSize=14;" parent="1" vertex="1">
          <mxGeometry x="390" y="238.5" width="140" height="54" as="geometry" />
        </mxCell>
        <mxCell id="G1qDwGjtDAcgYdXOOOMG-2" value="-identifier: character" style="text;html=1;strokeColor=none;fillColor=none;align=left;verticalAlign=middle;spacingLeft=4;spacingRight=4;overflow=hidden;rotatable=0;points=[[0,0.5],[1,0.5]];portConstraint=eastwest;whiteSpace=wrap;fontFamily=Garamond;fontSize=14;" parent="vq0pCrYZXvMMgsdQWHzt-6" vertex="1">
          <mxGeometry y="29" width="140" height="25" as="geometry" />
        </mxCell>
        <mxCell id="vq0pCrYZXvMMgsdQWHzt-9" value="Metadata" style="swimlane;fontStyle=1;align=center;verticalAlign=middle;childLayout=stackLayout;horizontal=1;startSize=29;horizontalStack=0;resizeParent=1;resizeParentMax=0;resizeLast=0;collapsible=0;marginBottom=0;html=1;whiteSpace=wrap;fontFamily=Garamond;fontSize=14;" parent="1" vertex="1">
          <mxGeometry x="140" y="224" width="140" height="79" as="geometry" />
        </mxCell>
        <mxCell id="vq0pCrYZXvMMgsdQWHzt-10" value="-name: string" style="text;html=1;strokeColor=none;fillColor=none;align=left;verticalAlign=middle;spacingLeft=4;spacingRight=4;overflow=hidden;rotatable=0;points=[[0,0.5],[1,0.5]];portConstraint=eastwest;whiteSpace=wrap;fontFamily=Garamond;fontSize=14;" parent="vq0pCrYZXvMMgsdQWHzt-9" vertex="1">
          <mxGeometry y="29" width="140" height="25" as="geometry" />
        </mxCell>
        <mxCell id="vq0pCrYZXvMMgsdQWHzt-11" value="-description: string" style="text;html=1;strokeColor=none;fillColor=none;align=left;verticalAlign=middle;spacingLeft=4;spacingRight=4;overflow=hidden;rotatable=0;points=[[0,0.5],[1,0.5]];portConstraint=eastwest;whiteSpace=wrap;fontFamily=Garamond;fontSize=14;" parent="vq0pCrYZXvMMgsdQWHzt-9" vertex="1">
          <mxGeometry y="54" width="140" height="25" as="geometry" />
        </mxCell>
        <mxCell id="vq0pCrYZXvMMgsdQWHzt-12" value="Input" style="swimlane;fontStyle=1;align=center;verticalAlign=middle;childLayout=stackLayout;horizontal=1;startSize=29;horizontalStack=0;resizeParent=1;resizeParentMax=0;resizeLast=0;collapsible=0;marginBottom=0;html=1;whiteSpace=wrap;fontFamily=Garamond;fontSize=14;" parent="1" vertex="1">
          <mxGeometry x="630" y="361" width="140" height="79" as="geometry" />
        </mxCell>
        <mxCell id="vq0pCrYZXvMMgsdQWHzt-13" value="-name: string" style="text;html=1;strokeColor=none;fillColor=none;align=left;verticalAlign=middle;spacingLeft=4;spacingRight=4;overflow=hidden;rotatable=0;points=[[0,0.5],[1,0.5]];portConstraint=eastwest;whiteSpace=wrap;fontFamily=Garamond;fontSize=14;" parent="vq0pCrYZXvMMgsdQWHzt-12" vertex="1">
          <mxGeometry y="29" width="140" height="25" as="geometry" />
        </mxCell>
        <mxCell id="vq0pCrYZXvMMgsdQWHzt-14" value="-type: string" style="text;html=1;strokeColor=none;fillColor=none;align=left;verticalAlign=middle;spacingLeft=4;spacingRight=4;overflow=hidden;rotatable=0;points=[[0,0.5],[1,0.5]];portConstraint=eastwest;whiteSpace=wrap;fontFamily=Garamond;fontSize=14;" parent="vq0pCrYZXvMMgsdQWHzt-12" vertex="1">
          <mxGeometry y="54" width="140" height="25" as="geometry" />
        </mxCell>
        <mxCell id="vq0pCrYZXvMMgsdQWHzt-15" value="Operation" style="swimlane;fontStyle=1;align=center;verticalAlign=middle;childLayout=stackLayout;horizontal=1;startSize=29;horizontalStack=0;resizeParent=1;resizeParentMax=0;resizeLast=0;collapsible=0;marginBottom=0;html=1;whiteSpace=wrap;fontFamily=Garamond;fontSize=14;" parent="1" vertex="1">
          <mxGeometry x="630" y="216" width="140" height="79" as="geometry" />
        </mxCell>
        <mxCell id="vq0pCrYZXvMMgsdQWHzt-16" value="-name: string" style="text;html=1;strokeColor=none;fillColor=none;align=left;verticalAlign=middle;spacingLeft=4;spacingRight=4;overflow=hidden;rotatable=0;points=[[0,0.5],[1,0.5]];portConstraint=eastwest;whiteSpace=wrap;fontFamily=Garamond;fontSize=14;" parent="vq0pCrYZXvMMgsdQWHzt-15" vertex="1">
          <mxGeometry y="29" width="140" height="25" as="geometry" />
        </mxCell>
        <mxCell id="vq0pCrYZXvMMgsdQWHzt-17" value="-description: string" style="text;html=1;strokeColor=none;fillColor=none;align=left;verticalAlign=middle;spacingLeft=4;spacingRight=4;overflow=hidden;rotatable=0;points=[[0,0.5],[1,0.5]];portConstraint=eastwest;whiteSpace=wrap;fontFamily=Garamond;fontSize=14;" parent="vq0pCrYZXvMMgsdQWHzt-15" vertex="1">
          <mxGeometry y="54" width="140" height="25" as="geometry" />
        </mxCell>
        <mxCell id="vq0pCrYZXvMMgsdQWHzt-18" value="Communication Interface" style="swimlane;fontStyle=1;align=center;verticalAlign=middle;childLayout=stackLayout;horizontal=1;startSize=40;horizontalStack=0;resizeParent=1;resizeParentMax=0;resizeLast=0;collapsible=0;marginBottom=0;html=1;whiteSpace=wrap;fontFamily=Garamond;fontSize=14;" parent="1" vertex="1">
          <mxGeometry x="390" y="80" width="140" height="69" as="geometry" />
        </mxCell>
        <mxCell id="ZoBCMOwXG-SO-0q1adX1-2" value="" style="endArrow=diamondThin;endFill=1;endSize=12;html=1;rounded=0;exitX=1;exitY=0.5;exitDx=0;exitDy=0;entryX=0;entryY=0.5;entryDx=0;entryDy=0;fontFamily=Garamond;" parent="1" source="vq0pCrYZXvMMgsdQWHzt-10" target="vq0pCrYZXvMMgsdQWHzt-6" edge="1">
          <mxGeometry width="160" relative="1" as="geometry">
            <mxPoint x="130" y="380" as="sourcePoint" />
            <mxPoint x="290" y="380" as="targetPoint" />
          </mxGeometry>
        </mxCell>
        <mxCell id="ZoBCMOwXG-SO-0q1adX1-3" value="1" style="text;html=1;align=center;verticalAlign=middle;resizable=0;points=[];autosize=1;strokeColor=none;fillColor=none;fontFamily=Garamond;" parent="1" vertex="1">
          <mxGeometry x="280" y="258" width="30" height="30" as="geometry" />
        </mxCell>
        <mxCell id="ZoBCMOwXG-SO-0q1adX1-4" value="1" style="text;html=1;align=center;verticalAlign=middle;resizable=0;points=[];autosize=1;strokeColor=none;fillColor=none;fontFamily=Garamond;" parent="1" vertex="1">
          <mxGeometry x="360" y="258" width="30" height="30" as="geometry" />
        </mxCell>
        <mxCell id="ZoBCMOwXG-SO-0q1adX1-5" value="" style="endArrow=diamondThin;endFill=1;endSize=12;html=1;rounded=0;exitX=1;exitY=0.25;exitDx=0;exitDy=0;entryX=0.5;entryY=1;entryDx=0;entryDy=0;edgeStyle=orthogonalEdgeStyle;fontFamily=Garamond;" parent="1" source="vq0pCrYZXvMMgsdQWHzt-3" target="vq0pCrYZXvMMgsdQWHzt-6" edge="1">
          <mxGeometry width="160" relative="1" as="geometry">
            <mxPoint x="290.0000000000001" y="372.4999999999999" as="sourcePoint" />
            <mxPoint x="450" y="359" as="targetPoint" />
          </mxGeometry>
        </mxCell>
        <mxCell id="ZoBCMOwXG-SO-0q1adX1-6" value="1" style="text;html=1;align=center;verticalAlign=middle;resizable=0;points=[];autosize=1;strokeColor=none;fillColor=none;fontFamily=Garamond;" parent="1" vertex="1">
          <mxGeometry x="460" y="284.5" width="30" height="30" as="geometry" />
        </mxCell>
        <mxCell id="ZoBCMOwXG-SO-0q1adX1-7" value="1" style="text;html=1;align=center;verticalAlign=middle;resizable=0;points=[];autosize=1;strokeColor=none;fillColor=none;fontFamily=Garamond;" parent="1" vertex="1">
          <mxGeometry x="285" y="331" width="30" height="30" as="geometry" />
        </mxCell>
        <mxCell id="ZoBCMOwXG-SO-0q1adX1-8" value="1" style="endArrow=open;html=1;endSize=12;startArrow=diamondThin;startSize=14;startFill=1;edgeStyle=orthogonalEdgeStyle;align=left;verticalAlign=bottom;rounded=0;exitX=1;exitY=0.5;exitDx=0;exitDy=0;entryX=0;entryY=0.5;entryDx=0;entryDy=0;fontFamily=Garamond;" parent="1" source="vq0pCrYZXvMMgsdQWHzt-6" target="vq0pCrYZXvMMgsdQWHzt-16" edge="1">
          <mxGeometry x="-1" y="-22" relative="1" as="geometry">
            <mxPoint x="520" y="380" as="sourcePoint" />
            <mxPoint x="680" y="380" as="targetPoint" />
            <mxPoint y="1" as="offset" />
          </mxGeometry>
        </mxCell>
        <mxCell id="ZoBCMOwXG-SO-0q1adX1-14" value="1..*" style="text;html=1;align=center;verticalAlign=middle;resizable=0;points=[];autosize=1;strokeColor=none;fillColor=none;fontFamily=Garamond;" parent="1" vertex="1">
          <mxGeometry x="594" y="227.5" width="40" height="30" as="geometry" />
        </mxCell>
        <mxCell id="ZoBCMOwXG-SO-0q1adX1-16" value="Output" style="swimlane;fontStyle=1;align=center;verticalAlign=middle;childLayout=stackLayout;horizontal=1;startSize=29;horizontalStack=0;resizeParent=1;resizeParentMax=0;resizeLast=0;collapsible=0;marginBottom=0;html=1;whiteSpace=wrap;fontFamily=Garamond;fontSize=14;" parent="1" vertex="1">
          <mxGeometry x="630" y="60" width="140" height="79" as="geometry" />
        </mxCell>
        <mxCell id="ZoBCMOwXG-SO-0q1adX1-17" value="-name: string" style="text;html=1;strokeColor=none;fillColor=none;align=left;verticalAlign=middle;spacingLeft=4;spacingRight=4;overflow=hidden;rotatable=0;points=[[0,0.5],[1,0.5]];portConstraint=eastwest;whiteSpace=wrap;fontFamily=Garamond;fontSize=14;" parent="ZoBCMOwXG-SO-0q1adX1-16" vertex="1">
          <mxGeometry y="29" width="140" height="25" as="geometry" />
        </mxCell>
        <mxCell id="ZoBCMOwXG-SO-0q1adX1-18" value="-type: string" style="text;html=1;strokeColor=none;fillColor=none;align=left;verticalAlign=middle;spacingLeft=4;spacingRight=4;overflow=hidden;rotatable=0;points=[[0,0.5],[1,0.5]];portConstraint=eastwest;whiteSpace=wrap;fontFamily=Garamond;fontSize=14;" parent="ZoBCMOwXG-SO-0q1adX1-16" vertex="1">
          <mxGeometry y="54" width="140" height="25" as="geometry" />
        </mxCell>
        <mxCell id="ZoBCMOwXG-SO-0q1adX1-19" value="1" style="endArrow=open;html=1;endSize=12;startArrow=diamondThin;startSize=14;startFill=1;edgeStyle=orthogonalEdgeStyle;align=left;verticalAlign=bottom;rounded=0;exitX=0.5;exitY=1;exitDx=0;exitDy=0;entryX=0.5;entryY=0;entryDx=0;entryDy=0;fontFamily=Garamond;" parent="1" source="vq0pCrYZXvMMgsdQWHzt-15" target="vq0pCrYZXvMMgsdQWHzt-12" edge="1">
          <mxGeometry x="-0.2598" y="10" relative="1" as="geometry">
            <mxPoint x="610" y="450" as="sourcePoint" />
            <mxPoint x="710" y="450" as="targetPoint" />
            <mxPoint y="-1" as="offset" />
          </mxGeometry>
        </mxCell>
        <mxCell id="ZoBCMOwXG-SO-0q1adX1-20" value="1" style="endArrow=open;html=1;endSize=12;startArrow=diamondThin;startSize=14;startFill=1;edgeStyle=orthogonalEdgeStyle;align=left;verticalAlign=bottom;rounded=0;exitX=0.5;exitY=0;exitDx=0;exitDy=0;fontFamily=Garamond;" parent="1" source="vq0pCrYZXvMMgsdQWHzt-15" edge="1">
          <mxGeometry x="0.4702" y="-20" relative="1" as="geometry">
            <mxPoint x="649" y="304" as="sourcePoint" />
            <mxPoint x="700" y="140" as="targetPoint" />
            <mxPoint as="offset" />
          </mxGeometry>
        </mxCell>
        <mxCell id="ZoBCMOwXG-SO-0q1adX1-21" value="0 ..*" style="text;html=1;align=center;verticalAlign=middle;resizable=0;points=[];autosize=1;strokeColor=none;fillColor=none;fontFamily=Garamond;" parent="1" vertex="1">
          <mxGeometry x="700" y="331" width="40" height="30" as="geometry" />
        </mxCell>
        <mxCell id="ZoBCMOwXG-SO-0q1adX1-22" value="0 ..*" style="text;html=1;align=center;verticalAlign=middle;resizable=0;points=[];autosize=1;strokeColor=none;fillColor=none;fontFamily=Garamond;" parent="1" vertex="1">
          <mxGeometry x="700" y="186" width="40" height="30" as="geometry" />
        </mxCell>
        <mxCell id="ZoBCMOwXG-SO-0q1adX1-23" value="" style="endArrow=diamondThin;endFill=1;endSize=12;html=1;rounded=0;entryX=0.5;entryY=0;entryDx=0;entryDy=0;fontFamily=Garamond;" parent="1" target="vq0pCrYZXvMMgsdQWHzt-6" edge="1">
          <mxGeometry width="160" relative="1" as="geometry">
            <mxPoint x="460" y="150" as="sourcePoint" />
            <mxPoint x="400" y="268" as="targetPoint" />
          </mxGeometry>
        </mxCell>
        <mxCell id="ZoBCMOwXG-SO-0q1adX1-24" value="1" style="text;html=1;align=center;verticalAlign=middle;resizable=0;points=[];autosize=1;strokeColor=none;fillColor=none;fontFamily=Garamond;" parent="1" vertex="1">
          <mxGeometry x="460" y="200.5" width="30" height="30" as="geometry" />
        </mxCell>
        <mxCell id="ZoBCMOwXG-SO-0q1adX1-25" value="1" style="text;html=1;align=center;verticalAlign=middle;resizable=0;points=[];autosize=1;strokeColor=none;fillColor=none;fontFamily=Garamond;" parent="1" vertex="1">
          <mxGeometry x="460" y="149" width="30" height="30" as="geometry" />
        </mxCell>
        <mxCell id="ZoBCMOwXG-SO-0q1adX1-29" value="Event" style="swimlane;fontStyle=1;align=center;verticalAlign=middle;childLayout=stackLayout;horizontal=1;startSize=29;horizontalStack=0;resizeParent=1;resizeParentMax=0;resizeLast=0;collapsible=0;marginBottom=0;html=1;whiteSpace=wrap;fontFamily=Garamond;fontSize=14;" parent="1" vertex="1">
          <mxGeometry x="390" y="-80" width="140" height="79" as="geometry" />
        </mxCell>
        <mxCell id="ZoBCMOwXG-SO-0q1adX1-30" value="-name: string" style="text;html=1;strokeColor=none;fillColor=none;align=left;verticalAlign=middle;spacingLeft=4;spacingRight=4;overflow=hidden;rotatable=0;points=[[0,0.5],[1,0.5]];portConstraint=eastwest;whiteSpace=wrap;fontFamily=Garamond;fontSize=14;" parent="ZoBCMOwXG-SO-0q1adX1-29" vertex="1">
          <mxGeometry y="29" width="140" height="25" as="geometry" />
        </mxCell>
        <mxCell id="ZoBCMOwXG-SO-0q1adX1-31" value="-payload: data" style="text;html=1;strokeColor=none;fillColor=none;align=left;verticalAlign=middle;spacingLeft=4;spacingRight=4;overflow=hidden;rotatable=0;points=[[0,0.5],[1,0.5]];portConstraint=eastwest;whiteSpace=wrap;fontFamily=Garamond;fontSize=14;" parent="ZoBCMOwXG-SO-0q1adX1-29" vertex="1">
          <mxGeometry y="54" width="140" height="25" as="geometry" />
        </mxCell>
        <mxCell id="ZoBCMOwXG-SO-0q1adX1-32" value="" style="endArrow=diamondThin;endFill=1;endSize=12;html=1;rounded=0;entryX=0.5;entryY=0;entryDx=0;entryDy=0;fontFamily=Garamond;" parent="1" source="ZoBCMOwXG-SO-0q1adX1-31" target="vq0pCrYZXvMMgsdQWHzt-18" edge="1">
          <mxGeometry width="160" relative="1" as="geometry">
            <mxPoint x="460" as="sourcePoint" />
            <mxPoint x="470" y="241" as="targetPoint" />
          </mxGeometry>
        </mxCell>
        <mxCell id="ZoBCMOwXG-SO-0q1adX1-33" value="1" style="text;html=1;align=center;verticalAlign=middle;resizable=0;points=[];autosize=1;strokeColor=none;fillColor=none;fontFamily=Garamond;" parent="1" vertex="1">
          <mxGeometry x="465" y="50" width="30" height="30" as="geometry" />
        </mxCell>
        <mxCell id="ZoBCMOwXG-SO-0q1adX1-34" value="1..*" style="text;html=1;align=center;verticalAlign=middle;resizable=0;points=[];autosize=1;strokeColor=none;fillColor=none;fontFamily=Garamond;" parent="1" vertex="1">
          <mxGeometry x="460" y="-1" width="40" height="30" as="geometry" />
        </mxCell>
        <mxCell id="ZoBCMOwXG-SO-0q1adX1-38" value="Event Listener" style="swimlane;fontStyle=1;align=center;verticalAlign=middle;childLayout=stackLayout;horizontal=1;startSize=29;horizontalStack=0;resizeParent=1;resizeParentMax=0;resizeLast=0;collapsible=0;marginBottom=0;html=1;whiteSpace=wrap;fontFamily=Garamond;fontSize=14;" parent="1" vertex="1">
          <mxGeometry x="140" y="38" width="140" height="54" as="geometry" />
        </mxCell>
        <mxCell id="ZoBCMOwXG-SO-0q1adX1-41" value="Event Emitter" style="swimlane;fontStyle=1;align=center;verticalAlign=middle;childLayout=stackLayout;horizontal=1;startSize=29;horizontalStack=0;resizeParent=1;resizeParentMax=0;resizeLast=0;collapsible=0;marginBottom=0;html=1;whiteSpace=wrap;fontFamily=Garamond;fontSize=14;" parent="1" vertex="1">
          <mxGeometry x="145" y="-67.5" width="140" height="54" as="geometry" />
        </mxCell>
        <mxCell id="ZoBCMOwXG-SO-0q1adX1-44" value="" style="endArrow=block;endFill=0;endSize=12;html=1;rounded=0;exitX=1;exitY=0.5;exitDx=0;exitDy=0;entryX=0;entryY=0.5;entryDx=0;entryDy=0;" parent="1" source="ZoBCMOwXG-SO-0q1adX1-41" target="ZoBCMOwXG-SO-0q1adX1-30" edge="1">
          <mxGeometry width="160" relative="1" as="geometry">
            <mxPoint x="260" y="20" as="sourcePoint" />
            <mxPoint x="420" y="20" as="targetPoint" />
          </mxGeometry>
        </mxCell>
        <mxCell id="ZoBCMOwXG-SO-0q1adX1-45" value="" style="endArrow=block;endFill=0;endSize=12;html=1;rounded=0;exitX=1;exitY=0.5;exitDx=0;exitDy=0;edgeStyle=orthogonalEdgeStyle;entryX=-0.011;entryY=0.266;entryDx=0;entryDy=0;entryPerimeter=0;" parent="1" source="ZoBCMOwXG-SO-0q1adX1-38" target="ZoBCMOwXG-SO-0q1adX1-31" edge="1">
          <mxGeometry width="160" relative="1" as="geometry">
            <mxPoint x="295" y="-31" as="sourcePoint" />
            <mxPoint x="340" y="-10" as="targetPoint" />
            <Array as="points">
              <mxPoint x="360" y="65" />
              <mxPoint x="360" y="-20" />
              <mxPoint x="388" y="-20" />
            </Array>
          </mxGeometry>
        </mxCell>
        <mxCell id="IIxS8NRvZ7DD946tJJX8-2" value="Semantic Annotation" style="swimlane;fontStyle=1;align=center;verticalAlign=middle;childLayout=stackLayout;horizontal=1;startSize=29;horizontalStack=0;resizeParent=1;resizeParentMax=0;resizeLast=0;collapsible=0;marginBottom=0;html=1;whiteSpace=wrap;fontFamily=Garamond;fontSize=14;" vertex="1" parent="1">
          <mxGeometry x="130" y="110.5" width="160" height="90" as="geometry" />
        </mxCell>
        <mxCell id="IIxS8NRvZ7DD946tJJX8-3" value="-domain: string" style="text;html=1;strokeColor=none;fillColor=none;align=left;verticalAlign=middle;spacingLeft=4;spacingRight=4;overflow=hidden;rotatable=0;points=[[0,0.5],[1,0.5]];portConstraint=eastwest;whiteSpace=wrap;fontFamily=Garamond;fontSize=14;" vertex="1" parent="IIxS8NRvZ7DD946tJJX8-2">
          <mxGeometry y="29" width="160" height="25" as="geometry" />
        </mxCell>
        <mxCell id="IIxS8NRvZ7DD946tJJX8-4" value="-associatedConcept: string" style="text;html=1;strokeColor=none;fillColor=none;align=left;verticalAlign=middle;spacingLeft=4;spacingRight=4;overflow=hidden;rotatable=0;points=[[0,0.5],[1,0.5]];portConstraint=eastwest;whiteSpace=wrap;fontFamily=Garamond;fontSize=14;" vertex="1" parent="IIxS8NRvZ7DD946tJJX8-2">
          <mxGeometry y="54" width="160" height="36" as="geometry" />
        </mxCell>
        <mxCell id="IIxS8NRvZ7DD946tJJX8-6" value="" style="endArrow=diamondThin;endFill=1;endSize=12;html=1;rounded=0;exitX=1;exitY=0.5;exitDx=0;exitDy=0;entryX=0;entryY=0.5;entryDx=0;entryDy=0;fontFamily=Garamond;edgeStyle=orthogonalEdgeStyle;" edge="1" parent="1" source="IIxS8NRvZ7DD946tJJX8-3" target="vq0pCrYZXvMMgsdQWHzt-18">
          <mxGeometry width="160" relative="1" as="geometry">
            <mxPoint x="290" y="276" as="sourcePoint" />
            <mxPoint x="400" y="276" as="targetPoint" />
          </mxGeometry>
        </mxCell>
        <mxCell id="IIxS8NRvZ7DD946tJJX8-7" value="1" style="text;html=1;align=center;verticalAlign=middle;resizable=0;points=[];autosize=1;strokeColor=none;fillColor=none;fontFamily=Garamond;" vertex="1" parent="1">
          <mxGeometry x="360" y="119" width="30" height="30" as="geometry" />
        </mxCell>
        <mxCell id="IIxS8NRvZ7DD946tJJX8-8" value="1..*" style="text;html=1;align=center;verticalAlign=middle;resizable=0;points=[];autosize=1;strokeColor=none;fillColor=none;fontFamily=Garamond;" vertex="1" parent="1">
          <mxGeometry x="285" y="156" width="40" height="30" as="geometry" />
        </mxCell>
      </root>
    </mxGraphModel>
  </diagram>
</mxfile>
